<?xml version="1.0" encoding="UTF-8"?>
<svg version="1.1" xmlns="http://www.w3.org/2000/svg" width="475" height="451">
<path d="M0 0 C156.75 0 313.5 0 475 0 C475 148.83 475 297.66 475 451 C318.25 451 161.5 451 0 451 C0 302.17 0 153.34 0 0 Z " fill="#FEFEFE" transform="translate(0,0)"/>
<path d="M0 0 C1.70736328 0.56074219 1.70736328 0.56074219 3.44921875 1.1328125 C31.17285121 11.04114031 53.16110236 31.09023701 65.875 57.5 C69.21148881 64.77293517 71.19727054 72.21836882 73 80 C73.22558594 80.80824219 73.45117188 81.61648437 73.68359375 82.44921875 C75.60005006 89.59958332 75 95.01489249 75 103 C39.69 103 4.38 103 -32 103 C-32 137.98 -32 172.96 -32 209 C-58.92536921 209 -82.85148177 201.16901468 -103 183 C-103.85335937 182.32582031 -104.70671875 181.65164063 -105.5859375 180.95703125 C-122.31606907 167.39425469 -131.94713341 145.37327576 -137 125 C-137.18473877 124.32146973 -137.36947754 123.64293945 -137.55981445 122.94384766 C-143.89021587 97.99045325 -137.58594408 70.14825545 -124.8671875 48.25390625 C-120.35249605 40.79890783 -115.083927 34.24263814 -109 28 C-108.26910156 27.21882813 -107.53820312 26.43765625 -106.78515625 25.6328125 C-98.6767355 17.16813425 -89.41072089 11.27867538 -79 6 C-78.12601563 5.5565625 -77.25203125 5.113125 -76.3515625 4.65625 C-53.66057616 -6.25671704 -23.95612851 -8.08222197 0 0 Z " fill="#FFAD58" transform="translate(272,101)"/>
<path d="M0 0 C0 11.88 0 23.76 0 36 C-5.28 36.99 -10.56 37.98 -16 39 C-41.50103604 45.33743612 -62.99350488 56.80160416 -82 75 C-82.75796875 75.69480469 -83.5159375 76.38960938 -84.296875 77.10546875 C-100.1592469 92.12002422 -111.39785492 114.08744704 -117 135 C-117.4021875 136.47146484 -117.4021875 136.47146484 -117.8125 137.97265625 C-120.62690333 148.67550739 -121.21053502 159.00418397 -121.24023438 170.0090332 C-121.24990329 172.16592542 -121.28099782 174.32184718 -121.3125 176.47851562 C-121.38295985 185.67859634 -120.37720052 194.05599889 -118 203 C-117.79052734 203.79075928 -117.58105469 204.58151855 -117.36523438 205.39624023 C-110.83598481 228.61657566 -99.67229562 248.58737154 -83 266 C-82.30519531 266.75796875 -81.61039062 267.5159375 -80.89453125 268.296875 C-68.33726207 281.56320673 -50.20106213 292.00329944 -33 298 C-31.93265625 298.37318359 -31.93265625 298.37318359 -30.84375 298.75390625 C-16.23813684 303.72654099 -2.39874769 305.13973477 13 306 C13 318.21 13 330.42 13 343 C-4.42695214 343 -4.42695214 343 -11.875 341.75 C-12.71595215 341.61432617 -13.5569043 341.47865234 -14.42333984 341.33886719 C-42.73038694 336.61480546 -69.38739777 325.98619541 -92 308 C-92.81041748 307.35877197 -92.81041748 307.35877197 -93.63720703 306.70458984 C-123.09796118 283.14471564 -141.99530545 253.65255148 -153.13916016 217.76269531 C-153.6832001 216.01670666 -154.24334325 214.27558255 -154.82568359 212.54199219 C-158.92262434 199.96641075 -159.32638211 187.20417665 -159.26074219 174.10522461 C-159.25002854 171.56925477 -159.26069773 169.03399531 -159.2734375 166.49804688 C-159.28795515 152.37555218 -158.0373983 138.97198314 -153.9375 125.375 C-153.48068848 123.84721924 -153.48068848 123.84721924 -153.01464844 122.28857422 C-144.43287937 94.48622991 -130.00069686 71.00503601 -110 50 C-109.25621094 49.18015625 -108.51242188 48.3603125 -107.74609375 47.515625 C-91.91503351 30.66587045 -71.14909912 18.77269 -50 10 C-49.05769531 9.59910156 -48.11539063 9.19820312 -47.14453125 8.78515625 C-41.05056513 6.37275949 -34.73248233 4.85549272 -28.375 3.3125 C-27.49158936 3.09762939 -26.60817871 2.88275879 -25.69799805 2.66137695 C-16.98300466 0.62415867 -9.03178945 0 0 0 Z " fill="#FFAD59" transform="translate(227,30)"/>
<path d="M0 0 C12.87 0 25.74 0 39 0 C39.2475 3.196875 39.495 6.39375 39.75 9.6875 C44.44633207 63.51036055 67.69968073 114.167728 109.22167969 149.54199219 C134.76478392 170.48425172 163.91308616 184.54255391 196 192 C197.09368896 192.26079346 197.09368896 192.26079346 198.20947266 192.52685547 C206.25920825 194.30270671 214.42788635 194.90671778 222.625 195.625 C227.69875 196.07875 232.7725 196.5325 238 197 C238 210.53 238 224.06 238 238 C216.81217036 238 216.81217036 238 210.8125 237.3125 C210.04607178 237.22709961 209.27964355 237.14169922 208.48999023 237.05371094 C169.08143667 232.21772575 129.76793064 216.84951469 98 193 C97.39365723 192.5477002 96.78731445 192.09540039 96.16259766 191.62939453 C87.65560668 185.23723834 79.67232321 178.36876937 72 171 C71.23792236 170.27079346 71.23792236 170.27079346 70.46044922 169.52685547 C63.42714026 162.75803948 56.9612091 155.74957182 51 148 C50.58427734 147.46600586 50.16855469 146.93201172 49.74023438 146.38183594 C17.34915856 104.56135805 0 52.80808847 0 0 Z " fill="#FFAD59" transform="translate(2,203)"/>
<path d="M0 0 C68.13793103 0 68.13793103 0 81.8125 8.8125 C87.98318211 14.98318211 91.19468972 22.31371189 91.38085938 31.06469727 C91.35373948 41.17928769 90.39991633 48.67617277 83.25 56.375 C78.9197674 60.373383 74.10032134 64 68 64 C68.71451307 67.22386633 68.71451307 67.22386633 71.6875 68.625 C84.24643835 76.68789836 87.89249345 97.41302571 92.375 110.75 C92.60409058 111.42896332 92.83318115 112.10792664 93.06921387 112.8074646 C93.72603866 114.76051289 94.37596221 116.71570982 95.0234375 118.671875 C95.40419434 119.8175293 95.78495117 120.96318359 96.17724609 122.14355469 C97 125 97 125 97 128 C88.42 128 79.84 128 71 128 C70.03578125 125.03773438 69.0715625 122.07546875 68.078125 119.0234375 C67.13370085 116.14331675 66.18614375 113.26424464 65.23828125 110.38525391 C64.58330656 108.39023466 63.93157296 106.39414821 63.28320312 104.39697266 C62.34843914 101.51956266 61.40192656 98.64624475 60.453125 95.7734375 C60.16753723 94.88570648 59.88194946 93.99797546 59.58770752 93.08334351 C56.89074399 84.98808764 54.35838292 80.90558861 47 76 C36.11 75.505 36.11 75.505 25 75 C25 92.49 25 109.98 25 128 C16.75 128 8.5 128 0 128 C0 85.76 0 43.52 0 0 Z " fill="#298F89" transform="translate(373,250)"/>
<path d="M0 0 C1.72003959 1.61152703 3.40487309 3.26474045 5 5 C3.46906512 9.67199091 0.89242605 13.02170005 -2.125 16.8125 C-2.82689453 17.7087207 -2.82689453 17.7087207 -3.54296875 18.62304688 C-4.69005565 20.08616792 -5.84431234 21.54366297 -7 23 C-10.35902598 22.38103341 -12.44706783 21.13165525 -15.1875 19.125 C-25.37457983 12.27875572 -36.72337286 11.29045014 -48.734375 13.50390625 C-53.0839849 14.93469898 -55.85294977 16.97428081 -58 21 C-58.6121408 26.50926724 -58.35653945 30.38475826 -55 35 C-47.46115646 40.57383169 -36.93398977 41.60336965 -28 43.4375 C-15.82206125 46.06332618 -4.01546077 49.18833952 3.94921875 59.53125 C10.37408122 69.86081097 11.27292584 80.31415312 9.53515625 92.171875 C7.31587802 101.46920627 2.15889714 109.81208759 -6 115 C-23.31429576 123.59744341 -42.46549443 124.44119804 -61 119 C-71.99750384 115.11999424 -82.27694642 108.35600171 -88 98 C-85.93248969 95.34145336 -83.84347301 92.70063462 -81.75 90.0625 C-80.87021484 88.93038086 -80.87021484 88.93038086 -79.97265625 87.77539062 C-79.39902344 87.05673828 -78.82539063 86.33808594 -78.234375 85.59765625 C-77.71069336 84.93258057 -77.18701172 84.26750488 -76.64746094 83.58227539 C-74.78293996 81.79152844 -73.52412687 81.38629698 -71 81 C-70.5875 81.50789063 -70.175 82.01578125 -69.75 82.5390625 C-61.88083486 91.91882631 -53.53328451 98.17933083 -41.01953125 99.3828125 C-33.8728116 99.68933847 -26.74444546 99.82231079 -21 95 C-17.39842438 91.30838499 -16.74596737 88.43748459 -16.625 83.4375 C-16.68025855 79.54177195 -17.06739394 76.42598347 -19 73 C-21.21123938 71.7201616 -21.21123938 71.7201616 -24 71 C-25.67835938 70.43152344 -25.67835938 70.43152344 -27.390625 69.8515625 C-28.67596183 69.43919616 -29.96249062 69.03053221 -31.25 68.625 C-31.94528809 68.40440918 -32.64057617 68.18381836 -33.35693359 67.95654297 C-37.700969 66.61221516 -42.03739924 65.51544129 -46.48583984 64.57836914 C-58.18894215 62.09803805 -70.64930662 58.10449297 -78 48 C-83.99343883 38.22022998 -85.97189902 27.36936688 -83.3125 16.08203125 C-79.39899623 5.56448987 -72.99619664 -0.98921615 -63 -6 C-42.87018227 -14.83938888 -18.32063833 -11.20738175 0 0 Z " fill="#2A908A" transform="translate(339,258)"/>
<path d="M0 0 C4.455 -0.061875 8.91 -0.12375 13.5 -0.1875 C14.88896484 -0.21481201 16.27792969 -0.24212402 17.70898438 -0.27026367 C24.51966404 -0.31594985 29.88062821 -0.10755102 36 3 C40.53190734 7.76431284 41.19140065 10.74887685 41.3125 17.25 C41.36857422 19.20679688 41.36857422 19.20679688 41.42578125 21.203125 C40.91571516 25.75160429 40.09754123 27.63124548 37 31 C29.86949096 36.07481322 21.82867935 35.47145227 13.4375 35.25 C9.003125 35.1675 4.56875 35.085 0 35 C0 23.45 0 11.9 0 0 Z " fill="#FBFDFD" transform="translate(398,270)"/>
</svg>
